<svg width="24" height="24" viewBox="0 0 24 24" fill="none" xmlns="http://www.w3.org/2000/svg">
<path d="M17.8144 12.069C17.6289 11.8621 17.5361 11.6207 17.5361 11.3448C17.5361 11.069 17.6289 10.8276 17.8144 10.6207L20.8454 7.24138H1.70103C1.43299 7.24138 1.21134 7.14368 1.03608 6.94827C0.860825 6.75287 0.773196 6.50575 0.773196 6.2069C0.773196 5.90805 0.860825 5.66092 1.03608 5.46552C1.21134 5.27011 1.43299 5.17241 1.70103 5.17241H20.8454L17.7526 1.72414C17.5876 1.54023 17.5052 1.31035 17.5052 1.03448C17.5052 0.758621 17.5979 0.517242 17.7835 0.310345C17.9691 0.103448 18.1856 0 18.433 0C18.6804 0 18.8969 0.103448 19.0825 0.310345L23.7216 5.48276C23.8247 5.5977 23.8969 5.71264 23.9381 5.82759C23.9794 5.94253 24 6.06896 24 6.2069C24 6.34483 23.9794 6.47126 23.9381 6.58621C23.8969 6.70115 23.8247 6.81609 23.7216 6.93103L19.0825 12.1034C18.9175 12.2874 18.7113 12.3793 18.4639 12.3793C18.2165 12.3793 18 12.2759 17.8144 12.069ZM4.8866 23.6897L0.278351 18.5517C0.175258 18.4368 0.103093 18.3218 0.0618556 18.2069C0.0206185 18.092 0 17.9655 0 17.8276C0 17.6897 0.0206185 17.5632 0.0618556 17.4483C0.103093 17.3333 0.175258 17.2184 0.278351 17.1034L4.94845 11.8966C5.1134 11.7126 5.31959 11.6207 5.56701 11.6207C5.81443 11.6207 6.03093 11.7241 6.21649 11.931C6.40206 12.1379 6.49484 12.3793 6.49484 12.6552C6.49484 12.931 6.40206 13.1724 6.21649 13.3793L3.15464 16.7931H22.299C22.567 16.7931 22.7887 16.8908 22.9639 17.0862C23.1392 17.2816 23.2268 17.5287 23.2268 17.8276C23.2268 18.1264 23.1392 18.3736 22.9639 18.569C22.7887 18.7644 22.567 18.8621 22.299 18.8621H3.15464L6.21649 22.2759C6.38144 22.4598 6.46392 22.6897 6.46392 22.9655C6.46392 23.2414 6.37113 23.4828 6.18557 23.6897C6 23.8966 5.78351 24 5.53608 24C5.28866 24 5.07217 23.8966 4.8866 23.6897Z" fill="#808080"/>
</svg>
