<svg width="24" height="18" viewBox="0 0 24 18" fill="none" xmlns="http://www.w3.org/2000/svg">
<path d="M12 14.1C13.3118 14.1 14.4249 13.605 15.3395 12.615C16.254 11.625 16.7113 10.42 16.7113 9C16.7113 7.58 16.254 6.375 15.3395 5.385C14.4249 4.395 13.3118 3.9 12 3.9C10.6882 3.9 9.57506 4.395 8.66051 5.385C7.74596 6.375 7.28868 7.58 7.28868 9C7.28868 10.42 7.74596 11.625 8.66051 12.615C9.57506 13.605 10.6882 14.1 12 14.1ZM12 12.36C11.1316 12.36 10.3972 12.035 9.79677 11.385C9.1963 10.735 8.89607 9.94 8.89607 9C8.89607 8.06 9.1963 7.265 9.79677 6.615C10.3972 5.965 11.1316 5.64 12 5.64C12.8684 5.64 13.6028 5.965 14.2032 6.615C14.8037 7.265 15.1039 8.06 15.1039 9C15.1039 9.94 14.8037 10.735 14.2032 11.385C13.6028 12.035 12.8684 12.36 12 12.36ZM12 18C9.45035 18 7.12702 17.25 5.03002 15.75C2.93303 14.25 1.31178 12.27 0.166282 9.81C0.110855 9.71 0.0692841 9.59 0.0415705 9.45C0.0138568 9.31 0 9.16 0 9C0 8.84 0.0138568 8.69 0.0415705 8.55C0.0692841 8.41 0.110855 8.29 0.166282 8.19C1.31178 5.73 2.93303 3.75 5.03002 2.25C7.12702 0.75 9.45035 0 12 0C14.5497 0 16.873 0.75 18.97 2.25C21.067 3.75 22.6882 5.73 23.8337 8.19C23.8891 8.29 23.9307 8.41 23.9584 8.55C23.9861 8.69 24 8.84 24 9C24 9.16 23.9861 9.31 23.9584 9.45C23.9307 9.59 23.8891 9.71 23.8337 9.81C22.6882 12.27 21.067 14.25 18.97 15.75C16.873 17.25 14.5497 18 12 18Z" fill="white"/>
</svg>
