<svg width="24" height="24" viewBox="0 0 24 24" fill="none" xmlns="http://www.w3.org/2000/svg">
<path d="M13.0274 11.5333L16.8745 15.3C17.0752 15.5 17.1756 15.7389 17.1756 16.0167C17.1756 16.2944 17.0752 16.5333 16.8745 16.7333C16.6738 16.9333 16.4396 17.0333 16.172 17.0333C15.9043 17.0333 15.6702 16.9333 15.4694 16.7333L11.3213 12.6667C11.2097 12.5556 11.1317 12.4389 11.0871 12.3167C11.0425 12.1944 11.0202 12.0667 11.0202 11.9333V6.23333C11.0202 5.94444 11.115 5.70556 11.3045 5.51667C11.4941 5.32778 11.7338 5.23333 12.0238 5.23333C12.3137 5.23333 12.5534 5.32778 12.743 5.51667C12.9326 5.70556 13.0274 5.94444 13.0274 6.23333V11.5333ZM11.8565 24C8.73421 24 6.08583 23 3.91138 21C1.73692 19 0.437826 16.5 0.0140855 13.5C-0.0305187 13.1889 0.0308122 12.9222 0.198078 12.7C0.365344 12.4778 0.605091 12.3556 0.917321 12.3333C1.18495 12.3111 1.41912 12.3944 1.61984 12.5833C1.82056 12.7722 1.94322 13 1.98782 13.2667C2.36696 15.7556 3.45976 17.8333 5.26623 19.5C7.0727 21.1667 9.26946 22 11.8565 22C14.6889 22 17.0863 21.0111 19.0489 19.0333C21.0115 17.0556 21.9928 14.6556 21.9928 11.8333C21.9928 9.07778 21.0004 6.75 19.0155 4.85C17.0306 2.95 14.6443 2 11.8565 2C10.34 2 8.9182 2.34444 7.59123 3.03333C6.26425 3.72222 5.11012 4.63333 4.12882 5.76667H6.63781C6.92774 5.76667 7.16749 5.86111 7.35705 6.05C7.54662 6.23889 7.64141 6.47778 7.64141 6.76667C7.64141 7.05556 7.54662 7.29445 7.35705 7.48333C7.16749 7.67222 6.92774 7.76667 6.63781 7.76667H1.65329C1.36336 7.76667 1.12362 7.67222 0.934047 7.48333C0.744479 7.29445 0.649695 7.05556 0.649695 6.76667V1.83333C0.649695 1.54444 0.744479 1.30556 0.934047 1.11667C1.12362 0.927778 1.36336 0.833333 1.65329 0.833333C1.94322 0.833333 2.18297 0.927778 2.37253 1.11667C2.5621 1.30556 2.65689 1.54444 2.65689 1.83333V4.36667C3.81659 3.01111 5.19375 1.94444 6.78835 1.16667C8.38295 0.388889 10.0723 0 11.8565 0C13.5292 0 15.1015 0.311111 16.5734 0.933333C18.0453 1.55556 19.3333 2.40556 20.4372 3.48333C21.5412 4.56111 22.411 5.82222 23.0466 7.26667C23.6822 8.71111 24 10.2667 24 11.9333C24 13.6 23.6822 15.1667 23.0466 16.6333C22.411 18.1 21.5412 19.3778 20.4372 20.4667C19.3333 21.5556 18.0453 22.4167 16.5734 23.05C15.1015 23.6833 13.5292 24 11.8565 24Z" fill="#808080"/>
</svg>
