<svg width="24" height="24" viewBox="0 0 24 24" fill="none" xmlns="http://www.w3.org/2000/svg">
<path d="M2.25 24C1.625 24 1.09375 23.8014 0.65625 23.4043C0.21875 23.0071 0 22.5248 0 21.9574V8.68085C0 8.36312 0.0812499 8.05674 0.24375 7.7617C0.40625 7.46667 0.625 7.22837 0.9 7.04681L10.65 0.408511C10.85 0.27234 11.0625 0.170213 11.2875 0.102128C11.5125 0.0340426 11.75 0 12 0C12.25 0 12.4875 0.0340426 12.7125 0.102128C12.9375 0.170213 13.15 0.27234 13.35 0.408511L23.1 7.04681C23.375 7.22837 23.5937 7.46667 23.7562 7.7617C23.9187 8.05674 24 8.36312 24 8.68085V21.9574C24 22.5248 23.7812 23.0071 23.3438 23.4043C22.9062 23.8014 22.375 24 21.75 24H15V14.4681H9V24H2.25Z" fill="#0061FF"/>
</svg>
