<svg width="16" height="16" viewBox="0 0 16 16" fill="none" xmlns="http://www.w3.org/2000/svg">
<path d="M7.99998 12.6667C7.85554 12.6667 7.73609 12.6194 7.64165 12.525C7.5472 12.4306 7.49998 12.3111 7.49998 12.1667V8.5H3.83331C3.68887 8.5 3.56942 8.45278 3.47498 8.35834C3.38054 8.26389 3.33331 8.14445 3.33331 8C3.33331 7.85556 3.38054 7.73611 3.47498 7.64167C3.56942 7.54722 3.68887 7.5 3.83331 7.5H7.49998V3.83334C7.49998 3.68889 7.5472 3.56945 7.64165 3.475C7.73609 3.38056 7.85554 3.33334 7.99998 3.33334C8.14442 3.33334 8.26387 3.38056 8.35831 3.475C8.45276 3.56945 8.49998 3.68889 8.49998 3.83334V7.5H12.1666C12.3111 7.5 12.4305 7.54722 12.525 7.64167C12.6194 7.73611 12.6666 7.85556 12.6666 8C12.6666 8.14445 12.6194 8.26389 12.525 8.35834C12.4305 8.45278 12.3111 8.5 12.1666 8.5H8.49998V12.1667C8.49998 12.3111 8.45276 12.4306 8.35831 12.525C8.26387 12.6194 8.14442 12.6667 7.99998 12.6667Z" fill="#101010"/>
</svg>
